<?xml version="1.0" encoding="utf-8"?>
<!-- Generator: Adobe Illustrator 18.1.1, SVG Export Plug-In . SVG Version: 6.00 Build 0)  -->
<!DOCTYPE svg PUBLIC "-//W3C//DTD SVG 1.1//EN" "http://www.w3.org/Graphics/SVG/1.1/DTD/svg11.dtd">
<svg version="1.1" id="Capa_1" xmlns="http://www.w3.org/2000/svg" xmlns:xlink="http://www.w3.org/1999/xlink" x="0px" y="0px"
	 viewBox="0 90.3 612.7 612.7" enable-background="new 0 90.3 612.7 612.7" xml:space="preserve">
<g>
	<g>
		<path fill="#FFFFFF" d="M593.2,377h-82.7c-10.8,0-19.1,8.4-19.1,19.1s8.3,19.4,19.1,19.4h82.7c10.8,0,19.1-8.7,19.1-19.4
			S604,377,593.2,377z"/>
		<path fill="#FFFFFF" d="M464.3,266.2l58.4-59.1c7.5-7.6,7.7-18.8,0-27.1c-7.2-7.7-19.2-8-27.1,0L437.2,239c-7.4,7.6-8,19.1,0,27.1
			C444.5,273.4,457,273.5,464.3,266.2z"/>
		<path fill="#FFFFFF" d="M464.3,527.1c-8-8-20.2-8-27.1,0c-8,7-7.5,19.6,0,27.1l58.4,58.3c5.9,7.3,21.2,7.3,27.1,0
			c8-6.9,8-19.1,0-27.1L464.3,527.1z"/>
		<path fill="#FFFFFF" d="M306.2,212c10.8,0,19.5-8.4,19.5-19.1v-83.4c0-10.8-8.7-19.1-19.5-19.1s-19.1,8.4-19.1,19.1v83.4
			C287.1,203.6,295.4,212,306.2,212z"/>
		<path fill="#FFFFFF" d="M306.2,581.3c-10.8,0-19.1,8.4-19.1,19.1v83.4c0,10.1,8.3,19.1,19.1,19.1s19.5-9,19.5-19.8v-82.7
			C325.6,589.7,317,581.3,306.2,581.3z"/>
		<path fill="#FFFFFF" d="M411.1,291.1c-29-29-63.9-43.7-105-43.7c-41,0-76.1,14.6-105.3,43.7c-28.8,28.8-43.4,64-43.4,105
			s14.4,76.3,43.4,105.3c29,29.1,64.3,43.4,105.3,43.4c41,0,76.1-14.6,105-43.4c29.2-29.1,43.8-64.3,43.8-105.3
			S440.1,320.2,411.1,291.1z M384.4,474.4c-21.5,21.5-47.6,32.3-78.2,32.3c-30.2,0-56.3-10.8-77.8-32.3
			c-21.5-21.6-32.3-47.7-32.3-78.2c0-30.2,10.8-56.3,32.3-77.8c21.5-21.6,47.6-32.3,77.8-32.3c30.6,0,56.6,10.8,78.2,32.3
			c21.6,21.6,32.3,47.6,32.3,77.8C416.7,426.7,405.9,452.8,384.4,474.4z"/>
		<path fill="#FFFFFF" d="M149.1,266.2c3.8,3.8,8.3,5.6,13.6,5.6c4.5,0,9-1.8,13.6-5.6c6.9-8,6.9-20.2,0-27.1l-59.1-59.1
			c-6.9-6.9-20.2-6.9-27.1,0c-8,8-7.5,19.6,0,27.1L149.1,266.2z"/>
		<path fill="#FFFFFF" d="M148.4,527.1L90,585.6c-8,7.9-8,19.8,0,27.8c7.3,7.3,19.8,7.3,27.1,0l59.1-59.1c7.5-7.5,6.9-20.2,0-27.1
			C168.2,519.1,156.4,519.1,148.4,527.1z"/>
		<path fill="#FFFFFF" d="M122,396.1c0-10.8-8.3-19.1-19.1-19.1H19.5c-10.8,0-19.1,8.4-19.1,19.1s8.3,19.4,19.1,19.4h83.4
			C113.6,415.6,122,406.9,122,396.1z"/>
	</g>
</g>
</svg>
