<?xml version="1.0" encoding="utf-8"?>
<!-- Generator: Adobe Illustrator 18.1.1, SVG Export Plug-In . SVG Version: 6.00 Build 0)  -->
<!DOCTYPE svg PUBLIC "-//W3C//DTD SVG 1.1//EN" "http://www.w3.org/Graphics/SVG/1.1/DTD/svg11.dtd">
<svg version="1.1" id="Capa_1" xmlns="http://www.w3.org/2000/svg" xmlns:xlink="http://www.w3.org/1999/xlink" x="0px" y="0px"
	 viewBox="0 91 612 612" enable-background="new 0 91 612 612" xml:space="preserve">
<g>
	<g id="Cloud_x5F_Sun">
		<g>
			<path fill="#FFFFFF" d="M365.7,225.3c12.4,0,22.4-10,22.4-22.4v-44.8c0-12.4-10-22.4-22.4-22.4c-12.4,0-22.4,10-22.4,22.4V203
				C343.3,215.3,353.3,225.3,365.7,225.3z M452.7,474.1c24.5-23.1,39.9-55.7,39.9-92.1c0-70.1-56.8-126.9-126.9-126.9
				c-42.1,0-79.3,20.6-102.4,52.2c-14.8-4.7-30.5-7.4-46.9-7.4c-83.3,0-151.2,65-156.3,147.1C24.4,465.8,0,503.1,0,546.3
				c0,61.8,50.1,112,112,112h298.5c53.6,0,97-43.4,97-97C507.5,522.8,485.1,489.8,452.7,474.1z M365.7,300
				c45.3,0,82.1,36.8,82.1,82.1c0,14.9-4.2,28.9-11.2,40.9c-17.6-36.3-54.2-61.7-97-63.1c-9.9-12.5-21.7-23.3-34.8-32.3
				C319.8,310.7,341.4,300,365.7,300z M410.5,613.4H112c-37,0-67.2-30.1-67.2-67.2c0-25.1,13.9-47.9,36.2-59.5l22.4-11.7l1.5-25.2
				c3.6-58.9,52.6-105,111.6-105c34.4,0,66.5,15.6,87.9,42.8l12.9,16.4l20.8,0.7c36.4,1.2,64.9,30.6,64.9,67v29.8l27.6,11.5
				c19.5,8.1,32.2,27.1,32.2,48.2C462.7,590,439.3,613.4,410.5,613.4z M485.1,285c6.2,0,11.8-2.5,15.8-6.6l29.9-29.9
				c4.1-4.1,6.6-9.7,6.6-15.8c0-12.4-10-22.4-22.4-22.4c-6.2,0-11.8,2.5-15.8,6.6l-29.9,29.9c-4.1,4-6.6,9.6-6.6,15.8
				C462.7,275,472.7,285,485.1,285z M230.5,278.5c4.1,4,9.7,6.6,15.8,6.6c12.4,0,22.4-10,22.4-22.4c0-6.2-2.5-11.8-6.6-15.8
				L232.3,217c-4-4-9.6-6.6-15.8-6.6c-12.4,0-22.4,10-22.4,22.4c0,6.2,2.5,11.8,6.6,15.8L230.5,278.5z M589.6,359.7h-44.8
				c-12.4,0-22.4,10-22.4,22.4s10,22.4,22.4,22.4h44.8c12.4,0,22.4-10,22.4-22.4S602,359.7,589.6,359.7z"/>
		</g>
	</g>
</g>
</svg>
