<?xml version="1.0" encoding="utf-8"?>
<!-- Generator: Adobe Illustrator 18.1.1, SVG Export Plug-In . SVG Version: 6.00 Build 0)  -->
<!DOCTYPE svg PUBLIC "-//W3C//DTD SVG 1.1//EN" "http://www.w3.org/Graphics/SVG/1.1/DTD/svg11.dtd">
<svg version="1.1" id="Capa_1" xmlns="http://www.w3.org/2000/svg" xmlns:xlink="http://www.w3.org/1999/xlink" x="0px" y="0px"
	 viewBox="-108 200.2 393.8 393.8" enable-background="new -108 200.2 393.8 393.8" xml:space="preserve">
<g>
	<g>
		<path fill="#FFFFFF" d="M193.4,529.6H-15.5c-51,0-92.5-41.5-92.5-92.5c0-34.4,18.9-65.6,48.9-81.6c0.8-50.3,42-90.9,92.5-90.9
			c29.7,0,57.6,14.5,74.9,38.3c4.2-0.6,8.4-0.9,12.7-0.9c31.8,0,61.1,16.2,78,42.8c48.4,2.9,86.9,43.2,86.9,92.3
			C285.9,488.1,244.4,529.6,193.4,529.6z M33.3,289.6c-37.2,0-67.5,30.3-67.5,67.5c0,1.8,0.1,3.5,0.2,5.2c0.4,5.4-2.7,10.4-7.6,12.5
			c-25.2,10.6-41.4,35-41.4,62.3c0,37.2,30.3,67.5,67.5,67.5h208.9c37.2,0,67.5-30.3,67.5-67.5c0-37.2-30.3-67.5-67.5-67.5
			c-0.5,0-0.9,0-1.4,0c-4.7,0.1-9.1-2.5-11.3-6.6c-11.7-22.2-34.6-36-59.7-36c-5.3,0-10.6,0.6-15.7,1.8c-5.3,1.3-10.9-1.1-13.7-5.8
			C79.5,302.4,57.2,289.6,33.3,289.6z"/>
	</g>
</g>
</svg>
