<?xml version="1.0" encoding="utf-8"?>
<!-- Generator: Adobe Illustrator 18.1.1, SVG Export Plug-In . SVG Version: 6.00 Build 0)  -->
<!DOCTYPE svg PUBLIC "-//W3C//DTD SVG 1.1//EN" "http://www.w3.org/Graphics/SVG/1.1/DTD/svg11.dtd">
<svg version="1.1" id="Capa_1" xmlns="http://www.w3.org/2000/svg" xmlns:xlink="http://www.w3.org/1999/xlink" x="0px" y="0px"
	 viewBox="0 0 612 792" enable-background="new 0 0 612 792" xml:space="preserve">
<g>
	<g>
		<path fill="#FFFFFF" d="M382.5,577.7c-10.6,0-19.1,8.5-19.1,19.3v37.9c0,10.7,8.5,19.3,19.1,19.3c10.6,0,19.1-8.5,19.1-19.3V597
			C401.6,586.3,393.2,577.7,382.5,577.7z"/>
		<path fill="#FFFFFF" d="M229.5,577.7c-10.6,0-19.1,8.5-19.1,19.3v37.9c0,10.7,8.5,19.3,19.1,19.3c10.6,0,19.1-8.5,19.1-19.3V597
			C248.6,586.3,240.1,577.7,229.5,577.7z"/>
		<path fill="#FFFFFF" d="M459,539.4c-10.6,0-19.1,8.5-19.1,19.3v37.9c0,10.7,8.5,19.3,19.1,19.3c10.6,0,19.1-8.5,19.1-19.3v-37.9
			C478.1,548.1,469.7,539.4,459,539.4z"/>
		<path fill="#FFFFFF" d="M306,539.4c-10.6,0-19.1,8.5-19.1,19.3v37.9c0,10.7,8.5,19.3,19.1,19.3c10.6,0,19.1-8.5,19.1-19.3v-37.9
			C325.1,548.1,316.7,539.4,306,539.4z"/>
		<path fill="#FFFFFF" d="M153,539.4c-10.6,0-19.1,8.5-19.1,19.3v37.9c0,10.7,8.5,19.3,19.1,19.3c10.6,0,19.1-8.5,19.1-19.3v-37.9
			C172.1,548.1,163.6,539.4,153,539.4z"/>
		<path fill="#FFFFFF" d="M527.6,294.9c-17.7-47.1-63.2-80.6-116.4-80.6c-12.3,0-24.1,1.8-35.3,5.1c-30.3-49-84.6-81.6-146.4-81.6
			c-93.8,0-170.1,75-172.1,168.4C23.1,326,0,363.2,0,405.6c0,63.3,51.4,114.8,114.8,114.8h382.5c63.3,0,114.8-51.5,114.8-114.8
			C612,352.7,576.2,308.2,527.6,294.9z M497.3,482.1H114.7c-42.1,0-76.4-34.3-76.4-76.5c0-36.2,25.2-66.6,59-74.5
			c-1.1-6.9-1.7-13.9-1.7-21.1c0-73.9,59.9-133.9,133.9-133.9c60.5,0,111.6,40.1,128.2,95.1c14.7-11.7,33.3-18.6,53.5-18.6
			c44.3,0,80.8,33.5,85.5,76.5h0.6c42.1,0,76.4,34.3,76.4,76.5C573.8,447.7,539.5,482.1,497.3,482.1z"/>
	</g>
</g>
</svg>
